# xmcd CD database file
#
# Track frame offsets:
#	150
#	16327
#	29847
#	41920
#	65243
#	81966
#	100233
#	118821
#	155611
#	176834
#	197682
#	210205
#	227828
#
# Disc length: 3076 seconds
#
# Revision: 0
# Processed by: cddbd v1.5.1PL0 Copyright (c) Steve Scherf et al.
# Submitted via: CDex 1.51
#
DISCID=ba0c020d
DTITLE=嘉門雄三 - KAMON YUZO ＆ VICTOR WHEELS LIVE!
DYEAR=1900
DGENRE=JPop
TTITLE0=Trying To Live My Life Without You
TTITLE1=Reggae Man
TTITLE2=Stay
TTITLE3=Say Good-Bye To Hollywood
TTITLE4=Hearts
TTITLE5=Slow Hand
TTITLE6=The Weight
TTITLE7=Blues Medley Blues Power
TTITLE8=Just Like a Woman
TTITLE9=Just Once
TTITLE10=Anytime At All
TTITLE11=You May Be Right
TTITLE12=Imagine
EXTD=
EXTT0=
EXTT1=
EXTT2=
EXTT3=
EXTT4=
EXTT5=
EXTT6=
EXTT7=
EXTT8=
EXTT9=
EXTT10=
EXTT11=
EXTT12=
PLAYORDER=
